<?xml version="1.0" encoding="UTF-8"?>
<svg id="Capa_1" xmlns="http://www.w3.org/2000/svg" version="1.1" xmlns:xlink="http://www.w3.org/1999/xlink" viewBox="0 0 1700 720">
  <!-- Generator: Adobe Illustrator 29.7.1, SVG Export Plug-In . SVG Version: 2.1.1 Build 8)  -->
  <defs>
    <style>
      .st0 {
        fill: url(#Degradado_sin_nombre_141);
      }

      .st1 {
        fill: #fff;
      }

      .st2 {
        fill: none;
      }

      .st3 {
        fill: #ff1d3d;
      }

      .st4 {
        fill: url(#Degradado_sin_nombre_14);
      }

      .st5 {
        fill: #006bb9;
      }
    </style>
    <linearGradient id="Degradado_sin_nombre_14" data-name="Degradado sin nombre 14" x1="877.6" y1="179.9" x2="1429.7" y2="179.9" gradientUnits="userSpaceOnUse">
      <stop offset=".4" stop-color="#ff1d3d"/>
      <stop offset="1" stop-color="#ff1d3d" stop-opacity="0"/>
    </linearGradient>
    <linearGradient id="Degradado_sin_nombre_141" data-name="Degradado sin nombre 14" x1="1344.8" y1="7527.7" x2="1896.9" y2="7527.7" gradientTransform="translate(3016.7 8059) rotate(-180)" xlink:href="#Degradado_sin_nombre_14"/>
  </defs>
  <g>
    <g>
      <path class="st5" d="M923,260.9v74h-22.3v-74h-22v-18.2h66.1v18.2h-21.9Z"/>
      <path class="st5" d="M983.7,301.3h-7.1v33.6h-21.4v-92.2h32.1c18.4,0,33.1,8.6,33.1,28.1s-6.7,21.9-16.8,26.8l18.9,37.3h-25.1l-13.5-33.6ZM983.7,259.4h-7.1v25.3h7.1c10.4,0,13.7-4.9,13.7-13.8s-4.4-11.5-13.7-11.5Z"/>
      <path class="st5" d="M1081.1,315.6h-28.8l-4.1,19.4h-21.6l25.3-92.2h33.6l25.3,92.2h-25.3l-4.4-19.4ZM1056.1,298.3h21.2l-7.8-36.6h-4.8l-8.6,36.6Z"/>
      <path class="st5" d="M1151.7,336.3c-13.5,0-22-1.9-31.4-5.2v-88.4h29.9c19.9,0,33.6,8.2,33.6,24.3s-6,16.9-14.8,19.5v.7c11.2,2.2,19.5,9.6,19.5,20.5,0,16.9-14.9,28.5-36.9,28.5ZM1149.1,260.2h-7.2v19.8h7.2c7.5,0,11.9-2.2,11.9-10.8s-4.1-9-11.9-9ZM1153.2,295.9h-11.3v21.2c2.6.8,6.1,1.5,9.8,1.5,7.4,0,14.2-3.1,14.2-11.7s-6-10.9-12.7-10.9Z"/>
      <path class="st5" d="M1247.2,315.6h-28.8l-4.1,19.4h-21.6l25.3-92.2h33.6l25.3,92.2h-25.3l-4.4-19.4ZM1222.2,298.3h21.2l-7.8-36.6h-4.8l-8.6,36.6Z"/>
      <path class="st5" d="M1329.4,304.2c0,19.5-8.3,32.1-25.7,32.1s-16.5-1.5-22.8-4l3.8-18.9c4,1.9,9,3.6,14.6,3.6s8.3-3.1,8.3-9.8v-64.5h21.7v61.5Z"/>
      <path class="st5" d="M1394.8,315.6h-28.8l-4.1,19.4h-21.6l25.3-92.2h33.6l25.3,92.2h-25.3l-4.4-19.4ZM1369.8,298.3h21.2l-7.8-36.6h-4.8l-8.6,36.6Z"/>
      <path class="st5" d="M1476.8,335l-25-72h-.5l2,72h-19.3v-92.2h33.2l25.7,73.8h.5l-2-73.8h19.7v92.2h-34.3Z"/>
      <path class="st5" d="M1563.1,336.3c-14.5,0-25.3-2.5-34.3-5.1v-88.5h33.3c27.5,0,44.8,10.8,44.8,45.1s-12.8,48.5-43.8,48.5ZM1561.5,260.1h-11.1v56.3c2.7.8,8.3,1.8,13.9,1.8,10,0,19.7-4.9,19.7-30.3s-5.6-27.7-22.5-27.7Z"/>
      <path class="st5" d="M1659,336.3c-32.4,0-40.6-23.5-40.6-48.2s8.1-46.7,40.6-46.7,41,22.4,41,46.7-8.6,48.2-41,48.2ZM1659,260c-14.3,0-17.8,12.3-17.8,28s3.7,30.2,17.8,30.2,18-12.6,18-30.2-3.7-28-18-28Z"/>
      <path class="st5" d="M910.7,441.5h-13.8v35.2h-10.4v-92.2h24.2c18,0,33.1,8.6,33.1,27.5s-14.1,29.5-33.1,29.5ZM910,393.4h-13.1v39.5h13.1c14.1,0,22.5-6.7,22.5-20.6s-9.3-18.9-22.5-18.9Z"/>
      <path class="st5" d="M954.3,476.7h-10.2l25.3-92.2h22.5l23.4,92.2h-11.5l-5.6-23.5h-37.8l-6,23.5ZM976.1,393.5l-13.7,50.7h33.6l-12.2-50.7h-7.8Z"/>
      <path class="st5" d="M1039.9,439.4v37.3h-10.4v-92.2h24.7c17.9,0,32.4,7.5,32.4,26.4s-7.4,21.7-18.6,26.2l20.9,39.6h-12.6l-18.6-37.6c-1.2.1-3.8.3-5.2.3h-12.7ZM1052.8,393h-12.8v37.7h12.8c13.9,0,22.7-6.4,22.7-19.5s-8.6-18.2-22.7-18.2Z"/>
      <path class="st5" d="M1105,476.7h-10.2l25.3-92.2h22.5l23.4,92.2h-11.5l-5.6-23.5h-37.8l-6,23.5ZM1126.8,393.5l-13.7,50.7h33.6l-12.2-50.7h-7.8Z"/>
      <path class="st5" d="M1285.4,441.5c0,19.3-10.9,36.6-36.5,36.6s-36.5-16.7-36.5-36.6v-57h21.6v55.9c0,11.6,5.3,19.4,14.9,19.4s14.6-7.9,14.6-19.4v-55.9h21.9v57Z"/>
      <path class="st5" d="M1359.4,406.6c-5.6-3-13.2-4.8-21.2-4.8s-11.7,3.1-11.7,7.2c0,14.1,41.7,8.2,41.7,39.7s-13,29.2-34.8,29.2-23.6-4.6-31-10.1l8.1-16.4c5.3,4.5,14.8,8.3,23.1,8.3s12.2-4.1,12.2-9.6c0-17.1-41.4-7.5-41.4-41s11.5-26.2,34.3-26.2,19.7,1.9,28.1,6.1l-7.2,17.3Z"/>
      <path class="st5" d="M1419.7,402.7v74h-22.3v-74h-22v-18.2h66.1v18.2h-21.9Z"/>
      <path class="st5" d="M1454.4,476.7v-92.2h59.6v18.2h-38v18.2h28.4l-1.4,19h-27v18.9h38v18h-59.6Z"/>
      <path class="st5" d="M1565.2,478.1c-14.5,0-25.3-2.5-34.3-5.1v-88.5h33.3c27.5,0,44.8,10.8,44.8,45.1s-12.8,48.5-43.8,48.5ZM1563.5,401.9h-11.1v56.3c2.7.8,8.3,1.8,13.9,1.8,10,0,19.7-4.9,19.7-30.3s-5.6-27.7-22.5-27.7Z"/>
    </g>
    <g>
      <path class="st4" d="M910.6,172l-8.7,15.6h-24.4v-15.6h33ZM976.3,172h-33l-8.7,15.6h33l8.7-15.6ZM1041.9,172h-33l-8.7,15.6h33l8.7-15.6ZM1107.6,172h-33l-8.7,15.6h33l8.7-15.6ZM1173.3,172h-33l-8.7,15.6h33l8.7-15.6ZM1238.9,172h-33l-8.7,15.6h33l8.7-15.6ZM1302.5,172h-33l-8.7,15.6h33l8.7-15.6ZM1366.1,172h-33l-8.7,15.6h33l8.7-15.6ZM1429.7,172h-33l-8.7,15.6h33l8.7-15.6Z"/>
      <path class="st0" d="M1638.8,539.1l8.7-15.6h24.4v15.6h-33ZM1573.1,539.1h33l8.7-15.6h-33l-8.7,15.6ZM1507.5,539.1h33l8.7-15.6h-33l-8.7,15.6ZM1441.8,539.1h33l8.7-15.6h-33l-8.7,15.6ZM1376.2,539.1h33l8.7-15.6h-33l-8.7,15.6ZM1310.5,539.1h33l8.7-15.6h-33l-8.7,15.6ZM1246.9,539.1h33l8.7-15.6h-33l-8.7,15.6ZM1183.3,539.1h33l8.7-15.6h-33l-8.7,15.6ZM1119.8,539.1h33l8.7-15.6h-33l-8.7,15.6Z"/>
    </g>
  </g>
  <g>
    <g>
      <g>
        <rect class="st5" y="2.5" width="322.6" height="715"/>
        <rect class="st3" x="322.6" y="2.5" width="464.9" height="715"/>
        <path class="st1" d="M384.6,679.3c-4.7,2.2-8.7,3.2-13.1,3.2-10.5,0-15.4-7.4-15.4-18.5s5.3-17.8,16.2-17.8,8.8,1.3,11.5,3.1l-2.9,5.1c-2-1.3-4.9-2.2-8.5-2.2-6.3,0-9.1,4.8-9.1,11.7s3,12.8,8.9,12.8,4.5-.5,6.1-1.2v-6.4h-4.8l-.4-5h11.5v15.3Z"/>
        <path class="st1" d="M412.9,669.3c0,8.7-4.4,13.3-11.9,13.3s-11.9-4.6-11.9-13.3,4.2-13.2,11.9-13.2,11.9,5.7,11.9,13.2M406,669.3c0-6.1-1.8-8.3-5-8.3s-4.9,2.2-4.9,8.3,1.6,8.3,4.9,8.3,5-2.2,5-8.3"/>
        <path class="st1" d="M424.3,659.2c1.1-1.6,3.9-3.1,6.7-3.1,6,0,10.3,4.3,10.3,13.2s-5.2,13.3-11.1,13.3-5.7-1.4-7.4-3.6l-1.2,3.1h-3.6v-35.8h6.8v8.9l-.5,4.1ZM424.7,675c1,1.4,2.8,2.6,4.6,2.6,3,0,5.1-2.2,5.1-8.3s-1.9-8.2-5-8.2-3.6.9-4.7,2v11.9Z"/>
        <path class="st1" d="M448.5,682v-20.4l-2.9-.6v-4.4h9.6v25.4h-6.7ZM448.3,646.3h6.8v6.2h-6.8v-6.2Z"/>
        <path class="st1" d="M467.2,671.2c0,4,2.3,6.3,6.5,6.3s5.2-1.1,7.4-2.2l1.3,4.8c-2.1,1.1-5.5,2.5-9.5,2.5-7.9,0-12.6-4.9-12.6-13.3s3.7-13.2,11.9-13.2,10.7,5.7,10.7,12.1v3h-15.8ZM471.9,661.1c-3.4,0-4.7,3.1-4.7,6.1h9.3c0-3.3-1-6.1-4.6-6.1"/>
        <path class="st1" d="M502.5,662.3c-.8-.3-2-.4-3.2-.4-1.8,0-3.4.8-4.6,1.7v18.4h-6.7v-25.4h4.7c.3,1.2.5,2.3.7,3.4h.2c.8-1.8,3.1-3.9,6.1-3.9s2.3.2,2.9.4c0,1.9,0,3.8-.1,5.7"/>
        <path class="st1" d="M522.4,682v-15.1c0-3.8-1.5-5.6-4.6-5.6s-3.3.8-4.5,1.6v19.2h-6.8v-25.4h4.7l1,2.9c1.4-1.7,4.2-3.4,8-3.4,6.4,0,9,3.8,9,10.2v15.7h-6.9Z"/>
        <path class="st1" d="M557.7,669.3c0,8.7-4.4,13.3-11.9,13.3s-11.9-4.6-11.9-13.3,4.2-13.2,11.9-13.2,11.9,5.7,11.9,13.2M550.7,669.3c0-6.1-1.8-8.3-5-8.3s-4.9,2.2-4.9,8.3,1.6,8.3,4.9,8.3,5-2.2,5-8.3"/>
        <path class="st1" d="M590.6,658.6c-.4-1.5-.6-2.7-.6-4.7v-7.7h6.8v35.8h-5.5l-.8-2.8c-1,1.6-3.5,3.3-6.7,3.3-5.8,0-10.4-4.1-10.4-13.2s4.8-13.2,10.9-13.2,4.9.9,6.3,2.5M590,662.4c-1-.6-2.6-1.2-4.6-1.2-3.2,0-5.2,2.2-5.2,8.1s1.9,8.3,5.1,8.3,3.4-.8,4.7-2.2v-13Z"/>
        <path class="st1" d="M608.7,671.2c0,4,2.3,6.3,6.5,6.3s5.2-1.1,7.4-2.2l1.3,4.8c-2.1,1.1-5.5,2.5-9.5,2.5-7.9,0-12.5-4.9-12.5-13.3s3.7-13.2,11.9-13.2,10.7,5.7,10.7,12.1v3h-15.8ZM613.4,661.1c-3.4,0-4.7,3.1-4.7,6.1h9.3c0-3.3-1-6.1-4.6-6.1"/>
        <path class="st1" d="M655.4,682.6c-9.9,0-15.1-6.6-15.1-18.3s5.2-18,15.1-18,9.1,1,11.9,3l-2.6,5.4c-1.8-1.3-5-2.4-8.6-2.4-5.8,0-8.7,4.3-8.7,12s2.9,12.4,8.6,12.4,6.9-1.4,9.2-3.2l2.2,5.4c-3.5,2.4-7.4,3.7-12,3.7"/>
        <path class="st1" d="M672.1,682v-35.8h6.8v9.4c0,1.8-.6,3.5-.7,3.9,1.4-1.8,3.6-3.5,7.2-3.5,7.3,0,9.4,3.8,9.4,10.2v15.7h-6.9v-15.1c0-.7-.1-1.2-.4-1.6-.2-2.9-1.7-4.1-4.2-4.1s-3.3.8-4.5,1.6v19.2h-6.8Z"/>
        <path class="st1" d="M702.4,682v-20.4l-2.9-.6v-4.4h9.6v25.4h-6.7ZM702.1,646.3h6.8v6.2h-6.8v-6.2Z"/>
        <path class="st1" d="M715.3,675.3v-29h6.7v28.7c0,2.1,1.3,2.4,4.1,2.4v4.8s-2,.4-3.7.4c-5.2,0-7-2.7-7-7.3"/>
        <path class="st1" d="M736.3,671.2c0,4,2.3,6.3,6.5,6.3s5.2-1.1,7.4-2.2l1.3,4.8c-2.1,1.1-5.5,2.5-9.5,2.5-7.9,0-12.6-4.9-12.6-13.3s3.7-13.2,11.9-13.2,10.7,5.7,10.7,12.1v3h-15.8ZM741.1,661.1c-3.4,0-4.7,3.1-4.7,6.1h9.3c0-3.3-1-6.1-4.6-6.1"/>
      </g>
      <g>
        <path class="st1" d="M168,100.6c.7-.6,2.2-1.9,1-4.3-.6-1.1-2.1-1.2-1.4-1.4,8.1-1.9,12.4-13.7,12.2-18.2,4.2,3.8,13.5,4.9,20.3-.8,4.4-4.2,6.5-15.3-1-20.8-3.8-2.8-10.6-3.1-14.8.2-1.3-2.3-3.7-3.9-6.2-3.9,0-.8.1-6.1-3.1-9.6-4-4.4-15.4-4.7-19.5,0-8.2-2-18.8,1.7-18.2,14.5-5.7-2.3-9-2.3-12.1-2-2.9.3-6.7,2.8-8,4.6-.6.8-1.3,1.9-1.8,2.8-.9,1.8-1.6,4.3-1.4,6.9.4,4.6,2.7,8.4,6,10.2,4.6,2.5,10.3,2.2,12.4,1.8,1.6-.3,3.3-.9,5.1-2.8.5-.5.9-1.4,1.7-1.4,0,1.2-.4,7.3,6.4,10.2,0,.3.1.6.2,1,2.2,8.4,7.8,7.4,7.9,8-2.5,1.5-1.5,3.7-.9,4.9,3.8-1.2,6.7-1.3,7.6-1.3s3.8.2,7.6,1.3Z"/>
        <g>
          <polygon class="st2" points="159.5 109.1 154.4 126 136.2 126 136.3 126 151 136.5 145.4 153.2 159.5 142.5 173.7 153.2 168.1 136.5 182.8 126 182.8 126 164.7 126 159.5 109.1"/>
          <path class="st1" d="M187.2,126.1c0-8.5,5.7-15,5.8-15.1.6-.7.7-1.4.6-1.8-.1-.8-.7-1.3-.8-1.3-1.6-1.1-5.3-3.3-5.3-3.3l-.3-.3h-.3c-.4,0-.7.2-1.2.6-1,.8-2.9,2.2-6.2,2.2s-1.2,0-1.8-.1c-1.7-.2-4.6-1.7-4.6-1.7-.9-.5-2.1-1-2.6-1.2h-.2c-4.7-2-8.7-2.2-9.8-2.2s-5.1.2-9.9,2.1h-.2c-.2.2-.7.4-1.2.6l-2.9,1.4c-1,.4-2.2.9-3.1,1-.6,0-1.2.1-1.8.1-3.3,0-5.2-1.5-6.2-2.2-.5-.4-.8-.6-1.2-.6h-.3s-.2.1-.2.1c0,0-3.8,2.3-5.3,3.4-.2.1-.8.6-1,1.4,0,.4,0,1.1.6,1.8.2.3,5.8,6.7,5.8,15.2.1,1,.6,6.1-3.8,13.6-.2.4-5,9.1.2,16.8,0,0,3.9,7.2,15.4,7.2s9.4.2,12.3,5.6c.1.2,1.5,2.4,2,3.4l.7,1.3.6-1.3c.6-1,1.9-3.2,2.1-3.5,2.9-5.3,11.3-5.5,12.2-5.5,11.3,0,15.3-7.1,15.3-7.1,5.4-7.9.3-16.8.3-16.9-4.3-7.5-3.9-12.6-3.8-13.7ZM182.8,126l-14.7,10.6,5.6,16.7-14.2-10.7-14.1,10.7,5.6-16.7-14.7-10.6h0s18.2,0,18.2,0l5.1-16.9,5.1,16.9h18.2,0Z"/>
          <g>
            <path class="st2" d="M110.2,207.4c8,8.3,19.7,3.7,19.7,3.7,1.9-.3,2.8-6,3.3-10.4-7-.9-13.7-2.1-20.2-3.8-2.2,5.4-2.7,10.6-2.7,10.6Z"/>
            <path class="st2" d="M108.1,172.5c-.3-.2-.5-.5-.9-.6-1-.2-1.7.7-2.9.4-1-.2-9.2-6.5-9.8-6.9-1.8-1.2-4.7-2.9-6-4.7-.9-1.2-.2-2.8-.4-4.3-.1-1.1-1.4-3.7-3.7-4.5-.5,2.6-4,11.8-15.1,14.2-1.5,6,.9,17.6,2.2,19.1,1,.2,2,.7,2.8,1.4,0-2.3.7-3.8.7-3.8,3.1-6.4,10.4-4.4,10.4-4.4,2.6.8,3.1,3,3.1,3,1,5-3.2,5.5-3.2,5.5-3,.1-3.1-2.3-3.1-2.3-.4-2.3,3-2.5,3-2.5-2.8-4.9-11.7,3.2-5.9,10.3.6.7,1.1.2,1.1.2,17.4-8.6,20.3-12.3,20.3-12.3,3.7-3.3,6.5-5.3,8.7-6.8-.8-.6-1.4-1.2-1.4-1.2Z"/>
            <path class="st2" d="M190.5,102.9c.3.2.7.5,1,.8-.4-.3-.8-.6-1-.8Z"/>
            <path class="st2" d="M196.2,107.2c-.6-.4-1.2-.9-1.9-1.4.7.5,1.3,1,1.9,1.4h0Z"/>
            <path class="st2" d="M192.2,104.2c.6.5,1.1.9,1.7,1.4-.6-.5-1.2-.9-1.7-1.4Z"/>
            <path class="st2" d="M106.7,204.4c.5-.7,1.3-3.7,1.3-3.7.4-1.7,1-3.2,1.7-4.6-1.9-.5-3.7-1.2-5.6-1.8.2,5.7,2.7,10.1,2.7,10.1Z"/>
            <path class="st2" d="M189,200.6c.5,4.4,1.4,10.1,3.3,10.4,0,0,11.7,4.6,19.7-3.7,0,0-.6-5.2-2.7-10.5-6.5,1.7-13.3,2.9-20.2,3.8Z"/>
            <path class="st2" d="M214.1,200.6s.7,3.1,1.3,3.7c0,0,2.4-4.4,2.6-10.1-1.8.6-3.7,1.2-5.6,1.8.6,1.4,1.2,2.8,1.6,4.6Z"/>
            <path class="st2" d="M127.4,184.7c-3.8,0-6.7,1.5-9,3.7,4.4,1,9.5,1.9,15.2,2.7-.9-6.5-6.2-6.5-6.2-6.5Z"/>
            <path class="st2" d="M206.8,187.6c3.5-.9,6.7-1.7,9.1-2.5-.5-1-1-2-1.8-2.9,0,0-9.9-12-27.6-5.2-.4.1.8,3,5.7,4.1.6.1,8.3.6,14.6,6.7Z"/>
            <path class="st2" d="M194.8,184.7s-5.2,0-6.2,6.5c5.7-.8,10.8-1.7,15.2-2.7-2.3-2.2-5.3-3.7-9-3.7Z"/>
            <path class="st2" d="M145,180.5c-1.3-1.7-3.1-1.8-3.1-1.8-2.6,0-3.1,5.9-3.8,13,5.4.6,11.5,1,17.9,1.2-2.7-5.6-8.7-9.3-11-12.4Z"/>
            <path class="st2" d="M108,182.2c-.8,1-1.3,1.9-1.8,2.9,2.5.8,5.6,1.7,9.1,2.5,6.3-6,14-6.5,14.6-6.6,4.9-1.1,6-3.9,5.7-4.1-17.7-6.7-27.6,5.2-27.6,5.2Z"/>
            <path class="st2" d="M180.2,178.7s-1.8,0-3.1,1.8c-2.2,3.1-8.2,6.8-11,12.4,6.4-.2,12.5-.5,17.9-1.2-.7-7.1-1.3-13-3.8-13Z"/>
            <path class="st1" d="M285.9,196.1c-1.9-2.2-6.7-1.1-6.7-1.1,2.6-7.8-4.6-9.9-4.6-9.9-2.6-.7-4.3-.2-5.4.6,0,0,0,0,0,0,0,0,0,0,0,0-.2.1-.4.3-.5.4-.7.7-1.1,1.6-1.1,2.6,0,2.1,1.7,3.8,3.8,3.8s1.6-.3,2.2-.7c.7-.5,1.3-1.3,1.5-2.2,1,.6,1.4,1.8,1.4,1.8,2.1,6.7-5.4,9.1-5.4,9.1-16.6,5-26.7-3.6-26.7-3.6l2.9-1.6c1-.4,1.9-.6,2.6-.6,0,.1,0,.3,0,.5,0,1.8,1.5,3.3,3.3,3.3s3.3-1.5,3.3-3.3c0-1.4-.7-2-.7-2-1.9-2.9-8.6-1-8.6-1,2.2-5.5.2-9.5.2-9.5-3.1-6.4-10.4-4.4-10.4-4.4-2.6.8-3.1,3-3.1,3-1,5,3.2,5.5,3.2,5.5,3,.1,3-2.3,3-2.3.4-2.3-2.9-2.5-2.9-2.5,2.8-4.9,11.6,3.2,5.9,10.3-.6.7-1.2.2-1.2.2-10.3-5.1-15.5-8.5-18-10.4-.2-2.8-2.7-4.2-2.2-5,.4-.2,1.9.6,2.7-.7.3-.4,1-4.9,1.5-8.1,9.1,4.2,16.9,2.9,18.5,2.4.8-.3,1.4-.9,1.5-2.1.1-3.5-8.9-24-9.1-31.2,4.3,2.1,6.9-4.5,7.7-6.5,5.7,2.6,7.7,55.8,12.1,57.6,2.2.9,3.1-2.7,3.3-3.4,7.1-23.7,7.3-46.8,6.9-54.5-.7-12.1-1.7-23-4.6-33-1.8-6.1-5.3-18.7-13.4-20.4-3.8-.8-6.7,2.7-6.6,5.9,0,2.8,2,4.1,1.1,6.8-1,1.8-2,3.7-2.5,5.7-.5,2,1.3,2.8.7,4.9-2.6-.4-3.8,1.9-7.9.8,2.6-1.2,2.7-8.7-.6-10-.5-.2-1-.3-1.1-.7,0,0,1-1.1,1.6-2.2,1.8-3.8,1.8-7.1.4-9.7,1.3.1,2.7-2.3,2.9-4.3h0s0,0,0-.1h0c0-.5,0-2.2.7-3.8.2-.5,0-1.1-.4-1.4-.5-.2-1.1,0-1.3.5-.8,1.7-2.7.7-1.9-.9.2-.5,0-1.1-.5-1.3-.4-.2-1.1,0-1.3.5-.8,1.6-2.6.7-1.8-.9.2-.5,0-1.1-.4-1.3-.4-.2-1.1,0-1.3.5-.8,1.7-2.7.7-1.9-.9.2-.6,0-1.1-.4-1.4-.4-.2-1,0-1.3.5-.8,1.8-1.4,2.5-2.3,3.2-1.8.3-1.3,2.4-1.1,3.8-3.4-.7-5.9,1.8-6,4.1h-.4c-2.8,0-5.4,1.5-5.2,4.1,0,1.5,1.8,3.3,2.4,3.3.3,0-.2-1.5,1.3-1.6,1.3,0,3.3,1,3.5,2.3.3,1.4-.9,4.8,3.6,5.4,0,0,0,.7,0,1.4-1.6-.1-2-.2-3.7,0-2.9.5-6.8,2.1-7.7,4.9-.2.5-.3,1.5-.2,2.1,0,.6.6,1.3.5,2,0,.3-.7,1.1-.9,1.3-1.2,1.3-3.4,2.4-5.4,2.5-2.2.1-4.3-1.3-5.1-2.4-2.9-3.9.8-10.6.8-13.1-.2-6.6-8.6-2.7-11.9-1-4,2.1-7.1,5.4-9.8,8.7-1.5,1.8-3.1,4.1-3.9,6-.1.4-.5.4-.8.4,1.7.8,4.7,1.9,7.1,1.9,0,0,4.6.6,7.9-2.1,0,0,.5-.4,1.1-.4s.9.2,1.3.5c0,0,.5.4,1,.8.3.2.7.5,1,.8.2.2.4.3.6.5.6.4,1.1.9,1.7,1.4.1,0,.2.2.3.3.7.5,1.3,1,1.9,1.4h0c.7.5,1.3,1,1.7,1.2h0c0,0,.2.2.3.5,0,.2-.1.5-.3.8,0,0-.4.4-.9,1.1-1.1,1.4-3,4.2-4.4,7.6,1.6,2.7,4.2,6,8,6,3,0,4.2-1.5,4.7-3.4,0,0,.2.2.2.3.4-.3,2,8.7,4.2,11.1-2.1,1-5.2,4.2-3.5,13-1.7-1.4-4.8-3.7-6.3-5.2-.9-1.8-2.6-6.2-7.7-6.6.7,2.2,1.8,4.7,3.4,7.5,0,0,3.1,5.7,2.1,12.1,2.1-2.2,1.8-8.1,1.8-8.1,0,0,.4-.2.5-.2.4,0,2.5,4.1,6.2,4.9,4.7,8.1,10.1,13.2,15.2,16.5,0,2,.1,6.6-1.1,6.6-4.1.9-7.8-1.8-11.4-1.6-.3-.1-.6-.3-.6-.3-15.4-7.4-35.6,8.5-39,11.6-1.8,1.6-3.8-.6-3.8-.6-1.2-1.5-2.8-2.2-4.4-2-1.5-.2-3.1.5-4.4,2,0,0-2.1,2.2-3.8.6-3.2-2.9-21.6-17.1-36.6-12.3,0-.8-2.1-1.2-2.6-1.5-1.2-.3-2.2-1.3-3-1.7-1.6-.8-4.3-.3-6.2-.5-.7-.1-1.7-.5-2.4-.9-2.4-1.5-5.1-3.3-6.7-5.5-.2-.4-.8-1.2-1-1.3-.7-.9-1.1-1.6-1.7-3.2-.8-3,.5-6.1.9-9.1.3-2.2.2-2.4.4-4.8,9.5-3.3,13.4-10.4,15.6-14.2.2-.3.8-1.5.8-1.5.4,0,.8,0,1.3.1,3.8,0,6.4-2.1,10.5-1.6,0,.2.6,2,3.3,3.1,0,2.7.3,5,1.3,7.1.2.4.5.7.7,1,1.8-4.4,2.3-7.8,2.3-9.9-.1-.2-.2-.4-.3-.8-.9-4.6-3.1-5.9-5.1-7.1-1-.5-2.1-.7-3.1-1.4-1.5-1-3.1-2.1-4-4,0,0,.5-.5,1-1.1,2.7-2.8,4-6.9,5-11.4,2-2.8,7.7-1.7,9.8-1.3.6,0,1.5.3,1.9.6.6.4.7,1.4,1.6,1.7.9.4,1.9,0,3,0,.4.5.6,1.1.9,1.6,0,0,.3.5.9,1.1,2.6,0,6.2-1.5,7.7-2.2-.2-.1-.3-.2-.4-.3-1.2-1.5-3-3.2-4.6-3.5-2.1-.3-2.5-2.2-4.6-2.6-.5-.1-2.3-.4-2.9-.2-4.5.6-7.6-1.1-11.8-1.4-4-.3-4.1,2.4-5.5,4.7-.5.8-1.2,1.8-1.8,2.5-1.1,1.1-2.4,1.1-3.7,2.1l-.6-1.6c-.4-1.4-.9-2.8-1.8-4.1-2.2-3.4-4.6-6-9.4-7.1-.9-.4-1.1-.4-1.7-.9-.8-.6-.2-1.3,0-1.4,1.4-.8,3.7-.5,5.3-1.2,3.8-1.8,2.5-5,1-5.3-1.9-.4-5.4-1.3-6.1-1.7-.9-.6-2.5-3.5-4-4.2-1.7-.5-1.1-3.2-2.6-3.8-.7-.1-1.6.2-2.7.8,0-.6-.5-3.7-2.2-4.7-1.3-.7-1.7.4-1.7,1.2,0,.7,1.9,1.6,2.2,4.5-.3.2-.6.4-.9.6-.2-1.2-.8-3.1-2-3.8-1.3-.7-1.7.4-1.7,1.1,0,.6,1.6,1.5,2.2,3.9-.4.3-.7.6-1.1,1-2.6-.7-3.3-2.4-3.9-2.6-.7-.2-1.9.2-1.3,1.6.6,1.4,2.5,2.1,3.7,2.4-.3.3-.5.6-.7.8-3-.6-3.7-2.5-4.4-2.7-.7-.1-1.9.2-1.3,1.6.9,1.9,4.2,2.6,4.6,2.7-.5.8-.8,1.5-.7,2.1-2.3-.3-6.4,1-5.6,3.7.8.6,3.5-1.7,6-.4,1.7,2.6,4.3,2.7,4.9,3.2.9.7,1.1,2.1,1.5,3.3.7,2.2,2.3,4,3.6,6,1.4,2.2,2.9,4.4,4.4,6.3.2.5.3,1,.3,1.8-1.7,2.7-6.8,5.9-8.9,7.8-2.1,2-22,17.1-24.5,23.7-.6,1.5-.9,3.4-.8,5.4-1.2.6-3.9,1.7-4.7.5-1.5-2.1,1.5-3.8.8-5.8-.3-.8-1.5-1.3-2.2-.8-5,3.6-2.4,9.9.7,11.3,3.4,1.4,3.9-2.3,6.6-.8.6.4,7,6,5.9,10.5,0,.2-.3.9-.4,1-1.4,1.7-3.7,3-5.3,4.7-3.3,2.1,3.1,15.2,2.6,21.9-.4,2.6,2.1,2.3,3.7,6.3-1.6,0-3.1.4-3.9,1.6,0,0-.7.7-.7,2s1.5,3.3,3.3,3.3,3.3-1.5,3.3-3.3,0-.4,0-.5c.7,0,1.6.1,2.6.6l2.9,1.6s-10.2,8.6-26.7,3.6c0,0-7.5-2.4-5.4-9.1,0,0,.4-1.1,1.4-1.8.2.9.7,1.7,1.5,2.2.6.4,1.4.7,2.2.7,2.1,0,3.8-1.7,3.8-3.8s-.4-1.9-1-2.6c-.2-.2-.3-.3-.5-.4,0,0,0,0,0,0,0,0,0,0,0,0-1.1-.8-2.8-1.3-5.4-.6,0,0-7.2,2.1-4.6,9.9,0,0-4.9-1.1-6.7,1.1,0,0-.6.7-.6,1.9h0c0,.5.2,1.1.5,1.7.5.7,1.4,1.2,2.3,1.2s1.7-.4,2.2-1.1c0,0,0,0,0,0,.2-.3.8-.6,1.7.3,11,11.5,28.9,6.7,38.9-.9,0,0,5.5-5.6,11.7-8.9,2.4,1,4.9,1.8,7.4,2.7-.2,3.6.6,8.7,4.5,14.6,0,0-2.8,5.2-7.5,2.3,0,0-3.5-2.7-.5-5.9,0,0,2-1.7,2.9.4-1,0-1.8.9-1.8,1.9s.8,1.9,1.9,1.9,1.9-.8,1.9-1.8c0-.8.1-2.8-1.6-4.2,0,0-1.5-1.6-4.4-1.2-4.2.7-6.5,9.4,1.7,13,0,0,6.5,3,9.8-1.9,0,0,0-.7,1.2.5,6.9,6.6,22.2,4.7,28.3.2,0,0,1.5-1,3.2-1.8,0,2.6,2.2,4.7,4.8,4.7s4.8-2.2,4.8-4.8-1.7-4.3-3.9-4.7c-.1,0-3.1-.9-7.6,1.8,0,0-4.7,2.9-4.4,2.5,1.6-2.5,2.6-5.8,3.2-9.4,6.7.7,13.5,1.2,20.6,1.4,0,2.1-.4,4.6-1.2,6.5,0,0-2.5,1-2.6,2.8,0,0-.3,1.3,1.9,3.1,0,0,1.6,1.8,2.1,3.2,0,0,.1,1.9,2.8,1.9s.4,0,.5,0c.2,0,.3,0,.5,0,2.7,0,2.8-1.9,2.8-1.9.5-1.4,2.1-3.2,2.1-3.2,2.2-1.8,1.9-3.1,1.9-3.1,0-1.8-2.6-2.8-2.6-2.8-.8-1.9-1.1-4.5-1.2-6.5,7.1-.2,14-.6,20.6-1.4.7,3.6,1.7,6.9,3.2,9.4.3.5-4.4-2.5-4.4-2.5-4.4-2.7-7.5-1.8-7.6-1.8-2.2.4-3.9,2.3-3.9,4.7s2.1,4.8,4.8,4.8,4.7-2.1,4.8-4.7c1.7.8,3.2,1.8,3.2,1.8,6.1,4.5,21.4,6.5,28.3-.2,1.2-1.2,1.2-.5,1.2-.5,3.3,4.8,9.8,1.9,9.8,1.9,8.2-3.6,5.9-12.3,1.7-13-2.9-.5-4.4,1.2-4.4,1.2-1.7,1.4-1.7,3.4-1.6,4.2,0,1,.9,1.8,1.9,1.8s1.9-.8,1.9-1.9-.8-1.9-1.8-1.9c.9-2.1,2.8-.4,2.8-.4,3,3.2-.5,5.9-.5,5.9-4.7,2.9-7.5-2.3-7.5-2.3,4-5.9,4.7-11,4.5-14.6,2.5-.9,5-1.7,7.4-2.7,6.1,3.4,11.6,8.9,11.6,8.9,9.9,7.7,27.9,12.4,38.9.9.9-.9,1.5-.6,1.7-.3,0,0,0,0,0,0,.5.6,1.3,1.1,2.2,1.1s1.8-.5,2.3-1.2c.3-.6.5-1.1.5-1.6h0c0-1.2-.6-1.9-.6-1.9ZM80.6,192.7s-.5.5-1.1-.2c-5.8-7.1,3.1-15.2,5.9-10.3,0,0-3.3.1-3,2.5,0,0,0,2.4,3.1,2.3,0,0,4.2-.4,3.2-5.5,0,0-.5-2.3-3.1-3,0,0-7.3-2-10.4,4.4,0,0-.6,1.5-.7,3.8-.8-.7-1.8-1.2-2.8-1.4-1.4-1.4-3.8-13.1-2.2-19.1,11.2-2.3,14.6-11.6,15.1-14.2,2.3.7,3.6,3.3,3.7,4.5.2,1.5-.5,3.1.4,4.3,1.3,1.8,4.2,3.5,6,4.7.6.4,8.8,6.7,9.8,6.9,1.2.2,1.9-.6,2.9-.4.4,0,.6.3.9.6,0,0,.6.6,1.4,1.2-2.1,1.4-4.9,3.5-8.7,6.8,0,0-2.8,3.7-20.3,12.3ZM108,200.6s-.7,3.1-1.3,3.7c0,0-2.5-4.4-2.7-10.1,1.9.6,3.7,1.3,5.6,1.8-.6,1.4-1.2,2.9-1.7,4.6ZM129.9,211s-11.7,4.6-19.7-3.7c0,0,.6-5.2,2.7-10.6,6.5,1.7,13.3,2.9,20.2,3.8-.5,4.4-1.4,10.2-3.3,10.4ZM118.3,188.4c2.3-2.2,5.3-3.7,9-3.7,0,0,5.2,0,6.2,6.5-5.7-.8-10.8-1.7-15.2-2.7ZM130,181c-.6.1-8.3.6-14.6,6.6-3.5-.9-6.7-1.8-9.1-2.5.5-1,1-2,1.8-2.9,0,0,9.9-12,27.6-5.2.3.1-.8,3-5.7,4.1ZM138.1,191.7c.7-7.1,1.3-13,3.8-13,0,0,1.8,0,3.1,1.8,2.2,3.1,8.2,6.8,11,12.4-6.4-.2-12.5-.5-17.9-1.2ZM166.1,192.9c2.7-5.6,8.7-9.3,11-12.4,1.3-1.7,3.1-1.8,3.1-1.8,2.6,0,3.1,5.9,3.8,13-5.4.6-11.5,1-17.9,1.2ZM186.5,176.9c17.7-6.7,27.6,5.2,27.6,5.2.8,1,1.3,2,1.8,2.9-2.5.8-5.6,1.6-9.1,2.5-6.3-6-14-6.5-14.6-6.7-4.9-1.1-6-3.9-5.7-4.1ZM194.8,184.7c3.8,0,6.7,1.6,9,3.7-4.4,1-9.5,1.9-15.2,2.7.9-6.5,6.2-6.5,6.2-6.5ZM192.3,211c-1.9-.3-2.8-6-3.3-10.4,7-.9,13.7-2.1,20.2-3.8,2.2,5.4,2.7,10.5,2.7,10.5-8,8.3-19.7,3.7-19.7,3.7ZM215.4,204.4c-.5-.7-1.3-3.7-1.3-3.7-.4-1.7-1-3.1-1.6-4.6,1.9-.5,3.7-1.2,5.6-1.8-.2,5.7-2.6,10.1-2.6,10.1Z"/>
          </g>
        </g>
      </g>
    </g>
    <g>
      <path class="st1" d="M397.3,83.6l-.9-37.4h-.3c-.8,4.7-1.6,8.1-2.2,10.7l-6.3,26.7h-12.7l-6-26.7c-.6-2.6-1.4-6-2.2-10.7h-.3l-.6,37.4h-7.9l1.7-44.3h14.8s4.9,22.3,7.4,36.6h.2c3-14.2,8.7-36.6,8.7-36.6h14.5l1.7,44.3h-9.7Z"/>
      <path class="st1" d="M417,83.6v-26l-3.7-.8v-5.4h12.3v32.2h-8.5ZM416.8,38.3h8.7v7.8h-8.7v-7.8Z"/>
      <path class="st1" d="M453.3,83.6v-19.1c0-4.9-1.8-7.2-5.8-7.2s-4.1,1-5.6,2v24.3h-8.6v-32.2h5.9l1.3,3.7c1.8-2.2,5.4-4.3,10.2-4.3,8.1,0,11.4,4.8,11.4,12.9v19.9h-8.7Z"/>
      <path class="st1" d="M471.7,83.6v-26l-3.7-.8v-5.4h12.3v32.2h-8.5ZM471.5,38.3h8.7v7.8h-8.7v-7.8Z"/>
      <path class="st1" d="M495.5,59.9c0,5,13.9,3.5,13.9,14s-4.3,10.4-12.7,10.4-7.5-1.1-9.7-2.4l1.8-6c1.5,1.1,4.7,2.2,7.6,2.2s4.7-1.6,4.7-3.5c0-5.8-13.7-3.9-13.7-14.8s3.6-9,12.3-9,6.8.7,9.1,1.6l-1.2,6.2c-2.2-1-4.9-1.6-7.7-1.6s-4.4,1.1-4.4,3Z"/>
      <path class="st1" d="M528.1,84.3c-5.7,0-9.5-2.7-9.5-10.8v-16h-4.8v-6.1h4.8v-5.6l8.5-2.8v8.3h8.6v6.1h-8.6v15.8c0,2.2,1.1,3.7,3.4,3.7s3.6-.5,4.9-1.2l1.3,6.3c-1.9,1.1-5.3,2.2-8.7,2.2Z"/>
      <path class="st1" d="M548,69.8c0,5.1,2.9,7.9,8.3,7.9s6.6-1.2,9.5-2.7l1.6,6c-2.7,1.4-7.1,3.2-12.1,3.2-9.9,0-15.8-6.2-15.8-16.8s4.8-16.7,15.1-16.7,13.5,7.2,13.5,15.3v3.7h-20ZM554,57.1c-4.3,0-6,3.9-6,7.7h11.8c0-4.1-1.2-7.7-5.7-7.7Z"/>
      <path class="st1" d="M592.7,58.6c-1.1-.3-2.6-.5-4-.5-2.3,0-4.3,1-5.8,2.2v23.4h-8.5v-32.2h6l.9,4.3h.2c1-2.3,3.9-4.9,7.7-4.9s3,.3,3.7.5l-.2,7.3Z"/>
      <path class="st1" d="M600.6,83.6v-26l-3.7-.8v-5.4h12.3v32.2h-8.5ZM600.3,38.3h8.7v7.8h-8.7v-7.8Z"/>
      <path class="st1" d="M645.8,67.5c0,11-5.5,16.8-15.1,16.8s-15.1-5.8-15.1-16.8,5.3-16.7,15.1-16.7,15.1,7.2,15.1,16.7ZM637,67.5c0-7.7-2.3-10.4-6.3-10.4s-6.2,2.8-6.2,10.4,2,10.5,6.2,10.5,6.3-2.8,6.3-10.5Z"/>
      <path class="st1" d="M687.5,53.9c-.5-1.8-.8-3.5-.8-5.9v-9.7h8.5v45.3h-7l-1-3.5c-1.3,2-4.4,4.2-8.5,4.2-7.3,0-13.1-5.3-13.1-16.7s6-16.7,13.9-16.7,6.2,1.2,8,3.2ZM686.7,58.8c-1.3-.8-3.3-1.6-5.8-1.6-4.1,0-6.6,2.8-6.6,10.2s2.4,10.6,6.5,10.6,4.3-1.1,6-2.8v-16.5Z"/>
      <path class="st1" d="M710.3,69.8c0,5.1,2.9,7.9,8.3,7.9s6.6-1.2,9.5-2.7l1.6,6c-2.7,1.4-7.1,3.2-12.1,3.2-9.9,0-15.8-6.2-15.8-16.8s4.8-16.7,15.1-16.7,13.5,7.2,13.5,15.3v3.7h-20ZM716.4,57.1c-4.3,0-6,3.9-6,7.7h11.8c0-4.1-1.2-7.7-5.7-7.7Z"/>
      <path class="st1" d="M380.8,150.5h-12.9l-12.9-44.3h10l9.6,36.8h.3l9.5-36.8h9.3l-12.9,44.3Z"/>
      <path class="st1" d="M400.7,150.5v-26l-3.7-.8v-5.4h12.3v32.2h-8.5ZM400.4,105.2h8.7v7.8h-8.7v-7.8Z"/>
      <path class="st1" d="M435.8,150.5h-12.5l-9.7-32.2h9.7l6.8,27h.3l6.7-27h8.7l-9.9,32.2Z"/>
      <path class="st1" d="M452.6,150.5v-26l-3.7-.8v-5.4h12.3v32.2h-8.5ZM452.4,105.2h8.7v7.8h-8.7v-7.8Z"/>
      <path class="st1" d="M476.3,136.8c0,5.1,2.9,7.9,8.3,7.9s6.6-1.2,9.5-2.7l1.6,6c-2.7,1.4-7.1,3.2-12.1,3.2-9.9,0-15.8-6.2-15.8-16.8s4.8-16.7,15.1-16.7,13.5,7.2,13.5,15.3v3.7h-20ZM482.4,124c-4.3,0-6,3.9-6,7.7h11.8c0-4.1-1.2-7.7-5.7-7.7Z"/>
      <path class="st1" d="M522.8,150.5v-19.1c0-4.9-1.8-7.2-5.8-7.2s-4.1,1-5.6,2v24.3h-8.6v-32.2h5.9l1.3,3.7c1.8-2.2,5.4-4.3,10.2-4.3,8.1,0,11.4,4.8,11.4,12.9v19.9h-8.7Z"/>
      <path class="st1" d="M559.4,120.9c-.5-1.8-.8-3.5-.8-5.9v-9.7h8.5v45.3h-7l-1-3.5c-1.3,2-4.4,4.2-8.5,4.2-7.3,0-13.1-5.3-13.1-16.7s6-16.7,13.9-16.7,6.2,1.2,8,3.2ZM558.6,125.7c-1.3-.8-3.3-1.6-5.8-1.6-4.1,0-6.6,2.8-6.6,10.2s2.4,10.6,6.5,10.6,4.3-1.1,6-2.8v-16.5Z"/>
      <path class="st1" d="M594.7,150.5l-1.2-3.8c-1.6,2.2-4.9,4.5-9.4,4.5-6.4,0-10.8-4.1-10.8-10.3s4.4-9.5,12.1-9.5h6.8v-1.6c0-4.1-2.4-5.5-5.6-5.5s-7,1-9.7,2.2l-2.2-6.1c3.2-1.4,7.6-2.6,12.7-2.6,9.1,0,13.1,4.2,13.1,12.4v20.4h-5.8ZM592.3,136.5h-5.3c-3.5,0-5.2,1.7-5.2,4.1s1.6,4.7,4.8,4.7,4.1-.9,5.7-2.2v-6.7Z"/>
      <path class="st1" d="M634.8,149.8l-6,1.1-9.6-32.5h9.7l6.8,27h.1l6.9-27h8.5l-9.9,33c-2.8,9.3-7.4,12.7-14.1,12.7s-7.7-2-9.1-3.2l2.7-5.8h.8c.3.2,3,2.3,6,2.3s5.6-2.4,6.8-6.5l.3-.9Z"/>
      <path class="st1" d="M392.2,200.7c0,9.3-5,17.4-16.7,17.4s-16.7-7.9-16.7-17.4v-27.6h8.6v27c0,6.5,2.6,10.7,8.1,10.7s7.9-4.2,7.9-10.7v-27h8.7v27.6Z"/>
      <path class="st1" d="M418.7,192.4c-1.1-.3-2.6-.5-4-.5-2.3,0-4.3,1-5.8,2.2v23.4h-8.5v-32.2h6l.9,4.3h.2c1-2.3,3.9-4.9,7.7-4.9s3,.3,3.7.5l-.2,7.3Z"/>
      <path class="st1" d="M431.9,188.6c1.4-2,4.9-3.9,8.5-3.9,7.6,0,13,5.4,13,16.7s-6.6,16.8-14.1,16.8-7.3-1.8-9.3-4.5l-1.6,3.9h-4.6v-45.3h8.6v11.2l-.6,5.2ZM432.5,208.5c1.3,1.8,3.5,3.3,5.8,3.3,3.7,0,6.5-2.8,6.5-10.5s-2.4-10.4-6.4-10.4-4.5,1.1-6,2.6v15Z"/>
      <path class="st1" d="M479.7,217.5l-1.2-3.8c-1.6,2.2-4.9,4.5-9.4,4.5-6.4,0-10.8-4.1-10.8-10.3s4.4-9.5,12.1-9.5h6.8v-1.6c0-4.1-2.4-5.5-5.6-5.5s-7,1-9.7,2.2l-2.2-6.1c3.2-1.4,7.6-2.6,12.7-2.6,9.1,0,13.1,4.2,13.1,12.4v20.4h-5.8ZM477.3,203.4h-5.3c-3.5,0-5.2,1.7-5.2,4.1s1.6,4.7,4.8,4.7,4.1-.9,5.7-2.2v-6.7Z"/>
      <path class="st1" d="M513,217.5v-19.1c0-4.9-1.8-7.2-5.8-7.2s-4.1,1-5.6,2v24.3h-8.6v-32.2h5.9l1.3,3.7c1.8-2.2,5.4-4.3,10.2-4.3,8.1,0,11.4,4.8,11.4,12.9v19.9h-8.7Z"/>
      <path class="st1" d="M531.4,217.5v-26l-3.7-.8v-5.4h12.3v32.2h-8.5ZM531.2,172.2h8.7v7.8h-8.7v-7.8Z"/>
      <path class="st1" d="M555.2,193.8c0,5,13.9,3.5,13.9,14s-4.3,10.4-12.7,10.4-7.5-1.1-9.7-2.4l1.8-6c1.5,1.1,4.7,2.2,7.6,2.2s4.7-1.6,4.7-3.5c0-5.8-13.7-3.9-13.7-14.8s3.6-9,12.3-9,6.8.7,9.1,1.6l-1.2,6.2c-2.2-1-4.9-1.6-7.7-1.6s-4.4,1.1-4.4,3Z"/>
      <path class="st1" d="M604.3,197.6v19.9h-8.7v-19.1c0-4.9-1.8-7.2-5.8-7.2s-3.9,1-5.5,2v24.3h-8.6v-32.2h5.8l1.4,3.7c1.8-2.2,5-4.4,9.5-4.4s8.4,1.6,10,4.5c1.9-2.3,5.3-4.5,9.7-4.5,9.2,0,11.9,4.8,11.9,12.9v19.9h-8.7v-19.1c0-4.9-2-7.2-6-7.2s-4,1-5.4,2c.3,1.3.3,2.8.3,4.4Z"/>
      <path class="st1" d="M660,201.3c0,11-5.5,16.8-15.1,16.8s-15.1-5.8-15.1-16.8,5.3-16.7,15.1-16.7,15.1,7.2,15.1,16.7ZM651.2,201.3c0-7.7-2.3-10.4-6.3-10.4s-6.2,2.8-6.2,10.4,2,10.5,6.2,10.5,6.3-2.8,6.3-10.5Z"/>
    </g>
  </g>
</svg>